# xmcd CD database file
#
# Track frame offsets:
#	150
#	3792
#	14685
#	29486
#	48849
#	64169
#	76101
#	91030
#	107559
#	123831
#	127771
#	140618
#	154976
#	171135
#	190933
#	206010
#	211155
#
# Disc length: 3179 seconds
#
# Revision: 5
# Processed by: cddbd v1.5.2PL0 Copyright (c) Steve Scherf et al.
# Submitted via: CDex 1.72
#
DISCID=d60c6911
DTITLE=Wagoner, Porter (USA-07-Wagonmaster-cty) - Wagonmaster
DYEAR=2007
DGENRE=Country
TTITLE0=Wagonmaster #1
TTITLE1=Be a Little Quieter
TTITLE2=Who Knows Right from Wrong
TTITLE3=Albert Erving
TTITLE4=A Place to Hang My Hat
TTITLE5=Eleven Cent Cotton
TTITLE6=My Many Hurried Southern Trips
TTITLE7=Committed to Parkview
TTITLE8=The Agony of Waiting
TTITLE9=Buck and the Boys
TTITLE10=Fool Like Me
TTITLE11=Late Love of Mine
TTITLE12=Hotwired
TTITLE13=Brother Harold Dee
TTITLE14=Satan's River
TTITLE15=Wagonmaster #2
TTITLE16=Porter and Marty [Hidden Track]
EXTD=YEAR: 2007
EXTT0=
EXTT1=
EXTT2=
EXTT3=
EXTT4=
EXTT5=
EXTT6=
EXTT7=
EXTT8=
EXTT9=
EXTT10=
EXTT11=
EXTT12=
EXTT13=
EXTT14=
EXTT15=
EXTT16=
PLAYORDER=
